<mxfile host="65bd71144e" pages="7">
    <diagram id="iTgBj7R5wCnMzHpIgvsg" name="01 - current">
        <mxGraphModel dx="698" dy="340" grid="1" gridSize="10" guides="1" tooltips="1" connect="1" arrows="1" fold="1" page="1" pageScale="1" pageWidth="1920" pageHeight="1200" math="0" shadow="0">
            <root>
                <mxCell id="0"/>
                <mxCell id="1" parent="0"/>
                <mxCell id="EM7ckJbD62LXPYxlnceQ-1" value="Container's Browser History" style="rounded=0;whiteSpace=wrap;html=1;fillColor=#dae8fc;strokeColor=#6c8ebf;fontStyle=1;fontSize=8;" parent="1" vertex="1">
                    <mxGeometry x="520" y="330" width="110" height="20" as="geometry"/>
                </mxCell>
                <mxCell id="EM7ckJbD62LXPYxlnceQ-5" style="edgeStyle=orthogonalEdgeStyle;rounded=0;orthogonalLoop=1;jettySize=auto;html=1;exitX=0.5;exitY=1;exitDx=0;exitDy=0;" parent="1" source="EM7ckJbD62LXPYxlnceQ-2" target="EM7ckJbD62LXPYxlnceQ-4" edge="1">
                    <mxGeometry relative="1" as="geometry"/>
                </mxCell>
                <mxCell id="EM7ckJbD62LXPYxlnceQ-2" value="/" style="rounded=0;whiteSpace=wrap;html=1;fillColor=#dae8fc;strokeColor=#6c8ebf;fontStyle=0" parent="1" vertex="1">
                    <mxGeometry x="520" y="350" width="110" height="40" as="geometry"/>
                </mxCell>
                <mxCell id="EM7ckJbD62LXPYxlnceQ-3" value="Marketing's Memory History" style="rounded=0;whiteSpace=wrap;html=1;fillColor=#d5e8d4;strokeColor=#82b366;fontStyle=1;fontSize=8;" parent="1" vertex="1">
                    <mxGeometry x="520" y="460" width="110" height="20" as="geometry"/>
                </mxCell>
                <mxCell id="EM7ckJbD62LXPYxlnceQ-4" value="/" style="rounded=0;whiteSpace=wrap;html=1;fillColor=#d5e8d4;strokeColor=#82b366;fontStyle=0" parent="1" vertex="1">
                    <mxGeometry x="520" y="420" width="110" height="40" as="geometry"/>
                </mxCell>
                <mxCell id="EM7ckJbD62LXPYxlnceQ-8" style="edgeStyle=orthogonalEdgeStyle;rounded=0;orthogonalLoop=1;jettySize=auto;html=1;exitX=1;exitY=0.5;exitDx=0;exitDy=0;fontSize=8;" parent="1" source="EM7ckJbD62LXPYxlnceQ-6" edge="1">
                    <mxGeometry relative="1" as="geometry">
                        <mxPoint x="740" y="406.0322580645161" as="targetPoint"/>
                    </mxGeometry>
                </mxCell>
                <mxCell id="EM7ckJbD62LXPYxlnceQ-6" value="Click on 'pricing' link in the Marketing app" style="rounded=0;whiteSpace=wrap;html=1;fontSize=8;fontStyle=2;fillColor=#ffe6cc;strokeColor=#d79b00;" parent="1" vertex="1">
                    <mxGeometry x="650" y="386" width="70" height="40" as="geometry"/>
                </mxCell>
                <mxCell id="EM7ckJbD62LXPYxlnceQ-9" style="edgeStyle=orthogonalEdgeStyle;rounded=0;orthogonalLoop=1;jettySize=auto;html=1;exitX=1;exitY=0.5;exitDx=0;exitDy=0;fontSize=8;" parent="1" edge="1">
                    <mxGeometry relative="1" as="geometry">
                        <mxPoint x="650" y="405.8722580645161" as="targetPoint"/>
                        <mxPoint x="630" y="405.84" as="sourcePoint"/>
                    </mxGeometry>
                </mxCell>
                <mxCell id="EM7ckJbD62LXPYxlnceQ-10" value="Container's Browser History" style="rounded=0;whiteSpace=wrap;html=1;fillColor=#dae8fc;strokeColor=#6c8ebf;fontStyle=1;fontSize=8;" parent="1" vertex="1">
                    <mxGeometry x="740" y="330" width="110" height="20" as="geometry"/>
                </mxCell>
                <mxCell id="EM7ckJbD62LXPYxlnceQ-11" style="edgeStyle=orthogonalEdgeStyle;rounded=0;orthogonalLoop=1;jettySize=auto;html=1;exitX=0.5;exitY=1;exitDx=0;exitDy=0;" parent="1" source="EM7ckJbD62LXPYxlnceQ-12" target="EM7ckJbD62LXPYxlnceQ-14" edge="1">
                    <mxGeometry relative="1" as="geometry"/>
                </mxCell>
                <mxCell id="EM7ckJbD62LXPYxlnceQ-12" value="/" style="rounded=0;whiteSpace=wrap;html=1;fillColor=#dae8fc;strokeColor=#6c8ebf;fontStyle=0" parent="1" vertex="1">
                    <mxGeometry x="740" y="350" width="110" height="40" as="geometry"/>
                </mxCell>
                <mxCell id="EM7ckJbD62LXPYxlnceQ-13" value="Marketing's Memory History" style="rounded=0;whiteSpace=wrap;html=1;fillColor=#d5e8d4;strokeColor=#82b366;fontStyle=1;fontSize=8;" parent="1" vertex="1">
                    <mxGeometry x="740" y="460" width="110" height="20" as="geometry"/>
                </mxCell>
                <mxCell id="EM7ckJbD62LXPYxlnceQ-14" value="/pricing" style="rounded=0;whiteSpace=wrap;html=1;fillColor=#d5e8d4;strokeColor=#82b366;fontStyle=0" parent="1" vertex="1">
                    <mxGeometry x="740" y="420" width="110" height="40" as="geometry"/>
                </mxCell>
                <mxCell id="EM7ckJbD62LXPYxlnceQ-16" style="edgeStyle=orthogonalEdgeStyle;rounded=0;orthogonalLoop=1;jettySize=auto;html=1;exitX=0.5;exitY=1;exitDx=0;exitDy=0;entryX=0.498;entryY=-0.108;entryDx=0;entryDy=0;entryPerimeter=0;fontSize=8;" parent="1" source="EM7ckJbD62LXPYxlnceQ-15" target="EM7ckJbD62LXPYxlnceQ-1" edge="1">
                    <mxGeometry relative="1" as="geometry"/>
                </mxCell>
                <mxCell id="EM7ckJbD62LXPYxlnceQ-15" value="localhost:8080/" style="rounded=0;whiteSpace=wrap;html=1;fontSize=12;fillColor=#f8cecc;strokeColor=#b85450;" parent="1" vertex="1">
                    <mxGeometry x="525" y="290" width="100" height="20" as="geometry"/>
                </mxCell>
            </root>
        </mxGraphModel>
    </diagram>
    <diagram id="xAR-E203GpM25XRTRrl_" name="02 - pricing">
        <mxGraphModel dx="698" dy="340" grid="1" gridSize="10" guides="1" tooltips="1" connect="1" arrows="1" fold="1" page="1" pageScale="1" pageWidth="1920" pageHeight="1200" math="0" shadow="0">
            <root>
                <mxCell id="EUVWUOAVlWLyxAjNI_Ww-0"/>
                <mxCell id="EUVWUOAVlWLyxAjNI_Ww-1" parent="EUVWUOAVlWLyxAjNI_Ww-0"/>
                <mxCell id="EUVWUOAVlWLyxAjNI_Ww-2" value="Container's Browser History" style="rounded=0;whiteSpace=wrap;html=1;fillColor=#dae8fc;strokeColor=#6c8ebf;fontStyle=1;fontSize=8;" parent="EUVWUOAVlWLyxAjNI_Ww-1" vertex="1">
                    <mxGeometry x="520" y="330" width="110" height="20" as="geometry"/>
                </mxCell>
                <mxCell id="EUVWUOAVlWLyxAjNI_Ww-3" style="edgeStyle=orthogonalEdgeStyle;rounded=0;orthogonalLoop=1;jettySize=auto;html=1;exitX=0.5;exitY=1;exitDx=0;exitDy=0;" parent="EUVWUOAVlWLyxAjNI_Ww-1" source="EUVWUOAVlWLyxAjNI_Ww-4" target="EUVWUOAVlWLyxAjNI_Ww-6" edge="1">
                    <mxGeometry relative="1" as="geometry"/>
                </mxCell>
                <mxCell id="EUVWUOAVlWLyxAjNI_Ww-4" value="/pricing" style="rounded=0;whiteSpace=wrap;html=1;fillColor=#dae8fc;strokeColor=#6c8ebf;fontStyle=0" parent="EUVWUOAVlWLyxAjNI_Ww-1" vertex="1">
                    <mxGeometry x="520" y="350" width="110" height="40" as="geometry"/>
                </mxCell>
                <mxCell id="EUVWUOAVlWLyxAjNI_Ww-5" value="Marketing's Memory History" style="rounded=0;whiteSpace=wrap;html=1;fillColor=#d5e8d4;strokeColor=#82b366;fontStyle=1;fontSize=8;" parent="EUVWUOAVlWLyxAjNI_Ww-1" vertex="1">
                    <mxGeometry x="520" y="460" width="110" height="20" as="geometry"/>
                </mxCell>
                <mxCell id="EUVWUOAVlWLyxAjNI_Ww-6" value="/" style="rounded=0;whiteSpace=wrap;html=1;fillColor=#d5e8d4;strokeColor=#82b366;fontStyle=0" parent="EUVWUOAVlWLyxAjNI_Ww-1" vertex="1">
                    <mxGeometry x="520" y="420" width="110" height="40" as="geometry"/>
                </mxCell>
                <mxCell id="EUVWUOAVlWLyxAjNI_Ww-7" style="edgeStyle=orthogonalEdgeStyle;rounded=0;orthogonalLoop=1;jettySize=auto;html=1;exitX=1;exitY=0.5;exitDx=0;exitDy=0;fontSize=8;" parent="EUVWUOAVlWLyxAjNI_Ww-1" source="EUVWUOAVlWLyxAjNI_Ww-8" edge="1">
                    <mxGeometry relative="1" as="geometry">
                        <mxPoint x="740" y="406.0322580645161" as="targetPoint"/>
                    </mxGeometry>
                </mxCell>
                <mxCell id="EUVWUOAVlWLyxAjNI_Ww-8" value="Click on 'pricing' link in the Marketing app" style="rounded=0;whiteSpace=wrap;html=1;fontSize=8;fontStyle=2;fillColor=#ffe6cc;strokeColor=#d79b00;" parent="EUVWUOAVlWLyxAjNI_Ww-1" vertex="1">
                    <mxGeometry x="650" y="386" width="70" height="40" as="geometry"/>
                </mxCell>
                <mxCell id="EUVWUOAVlWLyxAjNI_Ww-9" style="edgeStyle=orthogonalEdgeStyle;rounded=0;orthogonalLoop=1;jettySize=auto;html=1;exitX=1;exitY=0.5;exitDx=0;exitDy=0;fontSize=8;" parent="EUVWUOAVlWLyxAjNI_Ww-1" edge="1">
                    <mxGeometry relative="1" as="geometry">
                        <mxPoint x="650" y="405.872258064516" as="targetPoint"/>
                        <mxPoint x="630" y="405.8399999999999" as="sourcePoint"/>
                    </mxGeometry>
                </mxCell>
                <mxCell id="EUVWUOAVlWLyxAjNI_Ww-10" value="Container's Browser History" style="rounded=0;whiteSpace=wrap;html=1;fillColor=#dae8fc;strokeColor=#6c8ebf;fontStyle=1;fontSize=8;" parent="EUVWUOAVlWLyxAjNI_Ww-1" vertex="1">
                    <mxGeometry x="740" y="330" width="110" height="20" as="geometry"/>
                </mxCell>
                <mxCell id="EUVWUOAVlWLyxAjNI_Ww-11" style="edgeStyle=orthogonalEdgeStyle;rounded=0;orthogonalLoop=1;jettySize=auto;html=1;exitX=0.5;exitY=1;exitDx=0;exitDy=0;" parent="EUVWUOAVlWLyxAjNI_Ww-1" source="EUVWUOAVlWLyxAjNI_Ww-12" target="EUVWUOAVlWLyxAjNI_Ww-14" edge="1">
                    <mxGeometry relative="1" as="geometry"/>
                </mxCell>
                <mxCell id="EUVWUOAVlWLyxAjNI_Ww-12" value="/pricing" style="rounded=0;whiteSpace=wrap;html=1;fillColor=#dae8fc;strokeColor=#6c8ebf;fontStyle=0" parent="EUVWUOAVlWLyxAjNI_Ww-1" vertex="1">
                    <mxGeometry x="740" y="350" width="110" height="40" as="geometry"/>
                </mxCell>
                <mxCell id="EUVWUOAVlWLyxAjNI_Ww-13" value="Marketing's Memory History" style="rounded=0;whiteSpace=wrap;html=1;fillColor=#d5e8d4;strokeColor=#82b366;fontStyle=1;fontSize=8;" parent="EUVWUOAVlWLyxAjNI_Ww-1" vertex="1">
                    <mxGeometry x="740" y="460" width="110" height="20" as="geometry"/>
                </mxCell>
                <mxCell id="EUVWUOAVlWLyxAjNI_Ww-14" value="/pricing" style="rounded=0;whiteSpace=wrap;html=1;fillColor=#d5e8d4;strokeColor=#82b366;fontStyle=0" parent="EUVWUOAVlWLyxAjNI_Ww-1" vertex="1">
                    <mxGeometry x="740" y="420" width="110" height="40" as="geometry"/>
                </mxCell>
                <mxCell id="EUVWUOAVlWLyxAjNI_Ww-15" style="edgeStyle=orthogonalEdgeStyle;rounded=0;orthogonalLoop=1;jettySize=auto;html=1;exitX=0.5;exitY=1;exitDx=0;exitDy=0;entryX=0.498;entryY=-0.108;entryDx=0;entryDy=0;entryPerimeter=0;fontSize=8;" parent="EUVWUOAVlWLyxAjNI_Ww-1" source="EUVWUOAVlWLyxAjNI_Ww-16" target="EUVWUOAVlWLyxAjNI_Ww-2" edge="1">
                    <mxGeometry relative="1" as="geometry"/>
                </mxCell>
                <mxCell id="EUVWUOAVlWLyxAjNI_Ww-16" value="localhost:8080/pricing" style="rounded=0;whiteSpace=wrap;html=1;fontSize=12;fillColor=#f8cecc;strokeColor=#b85450;" parent="EUVWUOAVlWLyxAjNI_Ww-1" vertex="1">
                    <mxGeometry x="502.5" y="290" width="145" height="20" as="geometry"/>
                </mxCell>
            </root>
        </mxGraphModel>
    </diagram>
    <diagram id="Ig6j-X3BQPGrtGRjkz9Z" name="03 - comm">
        <mxGraphModel dx="698" dy="340" grid="1" gridSize="10" guides="1" tooltips="1" connect="1" arrows="1" fold="1" page="1" pageScale="1" pageWidth="1920" pageHeight="1200" math="0" shadow="0">
            <root>
                <mxCell id="epYk6Vk_543AH0uCYGGN-0"/>
                <mxCell id="epYk6Vk_543AH0uCYGGN-1" parent="epYk6Vk_543AH0uCYGGN-0"/>
                <mxCell id="WHJ495UbYScttTS1p_kF-2" style="edgeStyle=orthogonalEdgeStyle;rounded=0;orthogonalLoop=1;jettySize=auto;html=1;exitX=0.5;exitY=1;exitDx=0;exitDy=0;fontSize=14;" parent="epYk6Vk_543AH0uCYGGN-1" source="WHJ495UbYScttTS1p_kF-0" target="WHJ495UbYScttTS1p_kF-1" edge="1">
                    <mxGeometry relative="1" as="geometry"/>
                </mxCell>
                <mxCell id="WHJ495UbYScttTS1p_kF-4" style="edgeStyle=orthogonalEdgeStyle;rounded=0;orthogonalLoop=1;jettySize=auto;html=1;exitX=0.5;exitY=1;exitDx=0;exitDy=0;entryX=0.5;entryY=0;entryDx=0;entryDy=0;fontSize=14;" parent="epYk6Vk_543AH0uCYGGN-1" source="WHJ495UbYScttTS1p_kF-0" target="WHJ495UbYScttTS1p_kF-3" edge="1">
                    <mxGeometry relative="1" as="geometry"/>
                </mxCell>
                <mxCell id="WHJ495UbYScttTS1p_kF-0" value="Container Router" style="rounded=0;whiteSpace=wrap;html=1;fontSize=14;fontStyle=1;fillColor=#dae8fc;strokeColor=#6c8ebf;" parent="epYk6Vk_543AH0uCYGGN-1" vertex="1">
                    <mxGeometry x="640" y="340" width="180" height="40" as="geometry"/>
                </mxCell>
                <mxCell id="WHJ495UbYScttTS1p_kF-1" value="&amp;lt;a href=&quot;/&quot; /&amp;gt;" style="rounded=0;whiteSpace=wrap;html=1;fontSize=14;fontStyle=1;fillColor=#dae8fc;strokeColor=#6c8ebf;" parent="epYk6Vk_543AH0uCYGGN-1" vertex="1">
                    <mxGeometry x="530" y="420" width="180" height="40" as="geometry"/>
                </mxCell>
                <mxCell id="WHJ495UbYScttTS1p_kF-6" style="edgeStyle=orthogonalEdgeStyle;rounded=0;orthogonalLoop=1;jettySize=auto;html=1;exitX=0.5;exitY=1;exitDx=0;exitDy=0;fontSize=14;" parent="epYk6Vk_543AH0uCYGGN-1" source="WHJ495UbYScttTS1p_kF-3" target="WHJ495UbYScttTS1p_kF-5" edge="1">
                    <mxGeometry relative="1" as="geometry"/>
                </mxCell>
                <mxCell id="WHJ495UbYScttTS1p_kF-3" value="Marketing Router" style="rounded=0;whiteSpace=wrap;html=1;fontSize=14;fontStyle=1;fillColor=#d5e8d4;strokeColor=#82b366;" parent="epYk6Vk_543AH0uCYGGN-1" vertex="1">
                    <mxGeometry x="760" y="420" width="180" height="40" as="geometry"/>
                </mxCell>
                <mxCell id="WHJ495UbYScttTS1p_kF-5" value="&amp;lt;a href=&quot;/&quot; /&amp;gt;" style="rounded=0;whiteSpace=wrap;html=1;fontSize=14;fontStyle=1;fillColor=#d5e8d4;strokeColor=#82b366;" parent="epYk6Vk_543AH0uCYGGN-1" vertex="1">
                    <mxGeometry x="760" y="500" width="180" height="40" as="geometry"/>
                </mxCell>
            </root>
        </mxGraphModel>
    </diagram>
    <diagram name="04 - comm" id="oluYP6DNrQdLj-Ek_Dnq">
        <mxGraphModel dx="698" dy="340" grid="1" gridSize="10" guides="1" tooltips="1" connect="1" arrows="1" fold="1" page="1" pageScale="1" pageWidth="1920" pageHeight="1200" math="0" shadow="0">
            <root>
                <mxCell id="cwhAeJVMc_ar0TsdH7ec-0"/>
                <mxCell id="cwhAeJVMc_ar0TsdH7ec-1" parent="cwhAeJVMc_ar0TsdH7ec-0"/>
                <mxCell id="42LKaW6F3tW_jo2oVltk-3" style="edgeStyle=orthogonalEdgeStyle;rounded=0;orthogonalLoop=1;jettySize=auto;html=1;exitX=0.5;exitY=1;exitDx=0;exitDy=0;fontSize=12;fontStyle=0" parent="cwhAeJVMc_ar0TsdH7ec-1" source="42LKaW6F3tW_jo2oVltk-0" target="42LKaW6F3tW_jo2oVltk-2" edge="1">
                    <mxGeometry relative="1" as="geometry"/>
                </mxCell>
                <mxCell id="42LKaW6F3tW_jo2oVltk-0" value="User clicks link governed by Container (Browser History)" style="rounded=0;whiteSpace=wrap;html=1;fontSize=12;fontStyle=1;fillColor=#dae8fc;strokeColor=#6c8ebf;" parent="cwhAeJVMc_ar0TsdH7ec-1" vertex="1">
                    <mxGeometry x="680" y="270" width="140" height="60" as="geometry"/>
                </mxCell>
                <mxCell id="42LKaW6F3tW_jo2oVltk-5" style="edgeStyle=orthogonalEdgeStyle;rounded=0;orthogonalLoop=1;jettySize=auto;html=1;exitX=0.5;exitY=1;exitDx=0;exitDy=0;fontSize=12;fontStyle=0" parent="cwhAeJVMc_ar0TsdH7ec-1" source="42LKaW6F3tW_jo2oVltk-2" target="42LKaW6F3tW_jo2oVltk-4" edge="1">
                    <mxGeometry relative="1" as="geometry"/>
                </mxCell>
                <mxCell id="42LKaW6F3tW_jo2oVltk-2" value="Communicate change &lt;b&gt;down&lt;/b&gt; to Marketing" style="rounded=0;whiteSpace=wrap;html=1;fontSize=12;fontStyle=0" parent="cwhAeJVMc_ar0TsdH7ec-1" vertex="1">
                    <mxGeometry x="680" y="360" width="140" height="60" as="geometry"/>
                </mxCell>
                <mxCell id="42LKaW6F3tW_jo2oVltk-4" value="Marketing's &lt;b&gt;Memory History&lt;/b&gt; should update its current path" style="rounded=0;whiteSpace=wrap;html=1;fontSize=12;fontStyle=0" parent="cwhAeJVMc_ar0TsdH7ec-1" vertex="1">
                    <mxGeometry x="680" y="450" width="140" height="60" as="geometry"/>
                </mxCell>
                <mxCell id="42LKaW6F3tW_jo2oVltk-6" style="edgeStyle=orthogonalEdgeStyle;rounded=0;orthogonalLoop=1;jettySize=auto;html=1;exitX=0.5;exitY=1;exitDx=0;exitDy=0;fontSize=12;fontStyle=0" parent="cwhAeJVMc_ar0TsdH7ec-1" source="42LKaW6F3tW_jo2oVltk-7" target="42LKaW6F3tW_jo2oVltk-9" edge="1">
                    <mxGeometry relative="1" as="geometry"/>
                </mxCell>
                <mxCell id="42LKaW6F3tW_jo2oVltk-7" value="User clicks link governed by Marketing (Memory History)" style="rounded=0;whiteSpace=wrap;html=1;fontSize=12;fontStyle=1;fillColor=#d5e8d4;strokeColor=#82b366;" parent="cwhAeJVMc_ar0TsdH7ec-1" vertex="1">
                    <mxGeometry x="880" y="270" width="140" height="60" as="geometry"/>
                </mxCell>
                <mxCell id="42LKaW6F3tW_jo2oVltk-8" style="edgeStyle=orthogonalEdgeStyle;rounded=0;orthogonalLoop=1;jettySize=auto;html=1;exitX=0.5;exitY=1;exitDx=0;exitDy=0;fontSize=12;fontStyle=0" parent="cwhAeJVMc_ar0TsdH7ec-1" source="42LKaW6F3tW_jo2oVltk-9" target="42LKaW6F3tW_jo2oVltk-10" edge="1">
                    <mxGeometry relative="1" as="geometry"/>
                </mxCell>
                <mxCell id="42LKaW6F3tW_jo2oVltk-9" value="Communicate change &lt;b&gt;up&lt;/b&gt;&amp;nbsp;to Container" style="rounded=0;whiteSpace=wrap;html=1;fontSize=12;fontStyle=0" parent="cwhAeJVMc_ar0TsdH7ec-1" vertex="1">
                    <mxGeometry x="880" y="360" width="140" height="60" as="geometry"/>
                </mxCell>
                <mxCell id="42LKaW6F3tW_jo2oVltk-10" value="Container's &lt;b&gt;Browser History&lt;/b&gt; should update its current path" style="rounded=0;whiteSpace=wrap;html=1;fontSize=12;fontStyle=0" parent="cwhAeJVMc_ar0TsdH7ec-1" vertex="1">
                    <mxGeometry x="880" y="450" width="140" height="60" as="geometry"/>
                </mxCell>
            </root>
        </mxGraphModel>
    </diagram>
    <diagram name="05 - note" id="HQKvW7CNjPW4f1bU8BK6">
        <mxGraphModel dx="698" dy="340" grid="1" gridSize="10" guides="1" tooltips="1" connect="1" arrows="1" fold="1" page="1" pageScale="1" pageWidth="1920" pageHeight="1200" math="0" shadow="0">
            <root>
                <mxCell id="jrQ81lHTW7LuhRFanqEH-0"/>
                <mxCell id="jrQ81lHTW7LuhRFanqEH-1" parent="jrQ81lHTW7LuhRFanqEH-0"/>
                <mxCell id="r-e67wdKAARw3FfFSQT4-0" style="edgeStyle=orthogonalEdgeStyle;rounded=0;orthogonalLoop=1;jettySize=auto;html=1;exitX=0.5;exitY=1;exitDx=0;exitDy=0;fontSize=12;fontStyle=0" parent="jrQ81lHTW7LuhRFanqEH-1" source="r-e67wdKAARw3FfFSQT4-1" target="r-e67wdKAARw3FfFSQT4-3" edge="1">
                    <mxGeometry relative="1" as="geometry"/>
                </mxCell>
                <mxCell id="r-e67wdKAARw3FfFSQT4-1" value="User clicks link governed by Container (Browser History)" style="rounded=0;whiteSpace=wrap;html=1;fontSize=12;fontStyle=0;fillColor=#dae8fc;strokeColor=#6c8ebf;" parent="jrQ81lHTW7LuhRFanqEH-1" vertex="1">
                    <mxGeometry x="720" y="270" width="140" height="60" as="geometry"/>
                </mxCell>
                <mxCell id="r-e67wdKAARw3FfFSQT4-2" style="edgeStyle=orthogonalEdgeStyle;rounded=0;orthogonalLoop=1;jettySize=auto;html=1;exitX=0.5;exitY=1;exitDx=0;exitDy=0;fontSize=12;fontStyle=0" parent="jrQ81lHTW7LuhRFanqEH-1" source="r-e67wdKAARw3FfFSQT4-3" target="r-e67wdKAARw3FfFSQT4-4" edge="1">
                    <mxGeometry relative="1" as="geometry"/>
                </mxCell>
                <mxCell id="r-e67wdKAARw3FfFSQT4-3" value="Communicate change &lt;b&gt;down&lt;/b&gt; to Marketing" style="rounded=0;whiteSpace=wrap;html=1;fontSize=12;fontStyle=0" parent="jrQ81lHTW7LuhRFanqEH-1" vertex="1">
                    <mxGeometry x="720" y="360" width="140" height="60" as="geometry"/>
                </mxCell>
                <mxCell id="r-e67wdKAARw3FfFSQT4-4" value="Marketing's &lt;b&gt;Memory History&lt;/b&gt; should update its current path" style="rounded=0;whiteSpace=wrap;html=1;fontSize=12;fontStyle=0" parent="jrQ81lHTW7LuhRFanqEH-1" vertex="1">
                    <mxGeometry x="720" y="450" width="140" height="60" as="geometry"/>
                </mxCell>
                <mxCell id="r-e67wdKAARw3FfFSQT4-5" style="edgeStyle=orthogonalEdgeStyle;rounded=0;orthogonalLoop=1;jettySize=auto;html=1;exitX=0.5;exitY=1;exitDx=0;exitDy=0;fontSize=12;fontStyle=0" parent="jrQ81lHTW7LuhRFanqEH-1" source="r-e67wdKAARw3FfFSQT4-6" target="r-e67wdKAARw3FfFSQT4-8" edge="1">
                    <mxGeometry relative="1" as="geometry"/>
                </mxCell>
                <mxCell id="r-e67wdKAARw3FfFSQT4-6" value="User clicks link governed by Marketing (Memory History)" style="rounded=0;whiteSpace=wrap;html=1;fontSize=12;fontStyle=0;fillColor=#d5e8d4;strokeColor=#82b366;" parent="jrQ81lHTW7LuhRFanqEH-1" vertex="1">
                    <mxGeometry x="950" y="270" width="140" height="60" as="geometry"/>
                </mxCell>
                <mxCell id="r-e67wdKAARw3FfFSQT4-7" style="edgeStyle=orthogonalEdgeStyle;rounded=0;orthogonalLoop=1;jettySize=auto;html=1;exitX=0.5;exitY=1;exitDx=0;exitDy=0;fontSize=12;fontStyle=0" parent="jrQ81lHTW7LuhRFanqEH-1" source="r-e67wdKAARw3FfFSQT4-8" target="r-e67wdKAARw3FfFSQT4-9" edge="1">
                    <mxGeometry relative="1" as="geometry"/>
                </mxCell>
                <mxCell id="r-e67wdKAARw3FfFSQT4-8" value="Communicate change &lt;b&gt;up&lt;/b&gt;&amp;nbsp;to Container" style="rounded=0;whiteSpace=wrap;html=1;fontSize=12;fontStyle=0" parent="jrQ81lHTW7LuhRFanqEH-1" vertex="1">
                    <mxGeometry x="950" y="360" width="140" height="60" as="geometry"/>
                </mxCell>
                <mxCell id="r-e67wdKAARw3FfFSQT4-9" value="Container's &lt;b&gt;Browser History&lt;/b&gt; should update its current path" style="rounded=0;whiteSpace=wrap;html=1;fontSize=12;fontStyle=0" parent="jrQ81lHTW7LuhRFanqEH-1" vertex="1">
                    <mxGeometry x="950" y="450" width="140" height="60" as="geometry"/>
                </mxCell>
                <mxCell id="r-e67wdKAARw3FfFSQT4-10" value="Communication about routing between Container and a SubApp! It should be done in as generic a way as possible!" style="rounded=0;whiteSpace=wrap;html=1;fontSize=15;fontStyle=1;fillColor=#f8cecc;strokeColor=#b85450;" parent="jrQ81lHTW7LuhRFanqEH-1" vertex="1">
                    <mxGeometry x="720" y="190" width="370" height="70" as="geometry"/>
                </mxCell>
            </root>
        </mxGraphModel>
    </diagram>
    <diagram id="oRtRnVVemHPoSMmhzqWM" name="04 - on navigae">
        <mxGraphModel dx="613" dy="340" grid="1" gridSize="10" guides="1" tooltips="1" connect="1" arrows="1" fold="1" page="1" pageScale="1" pageWidth="1920" pageHeight="1200" background="none" math="0" shadow="1">
            <root>
                <mxCell id="i_EMBV1g0umL7AURaR9A-0"/>
                <mxCell id="i_EMBV1g0umL7AURaR9A-1" parent="i_EMBV1g0umL7AURaR9A-0"/>
                <mxCell id="rq7lYUsE7oODgP2l8xsh-15" style="edgeStyle=orthogonalEdgeStyle;rounded=0;orthogonalLoop=1;jettySize=auto;html=1;exitX=0.25;exitY=1;exitDx=0;exitDy=0;entryX=0.25;entryY=0;entryDx=0;entryDy=0;fontSize=14;fontStyle=0;fillColor=#f5f5f5;strokeColor=#666666;" parent="i_EMBV1g0umL7AURaR9A-1" source="rq7lYUsE7oODgP2l8xsh-0" target="rq7lYUsE7oODgP2l8xsh-3" edge="1">
                    <mxGeometry relative="1" as="geometry"/>
                </mxCell>
                <mxCell id="rq7lYUsE7oODgP2l8xsh-0" value="Container" style="rounded=0;whiteSpace=wrap;html=1;fontStyle=0;fontSize=8;fillColor=#f5f5f5;fontColor=#333333;strokeColor=#666666;" parent="i_EMBV1g0umL7AURaR9A-1" vertex="1">
                    <mxGeometry x="520" y="380" width="110" height="20" as="geometry"/>
                </mxCell>
                <mxCell id="rq7lYUsE7oODgP2l8xsh-1" style="edgeStyle=orthogonalEdgeStyle;rounded=0;orthogonalLoop=1;jettySize=auto;html=1;exitX=0.5;exitY=1;exitDx=0;exitDy=0;" parent="i_EMBV1g0umL7AURaR9A-1" edge="1">
                    <mxGeometry relative="1" as="geometry">
                        <mxPoint x="574.9999999999999" y="420.0000000000001" as="targetPoint"/>
                    </mxGeometry>
                </mxCell>
                <mxCell id="rq7lYUsE7oODgP2l8xsh-3" value="Marketing" style="rounded=0;whiteSpace=wrap;html=1;fontStyle=0;fontSize=8;fillColor=#f5f5f5;fontColor=#333333;strokeColor=#666666;" parent="i_EMBV1g0umL7AURaR9A-1" vertex="1">
                    <mxGeometry x="520" y="460" width="110" height="20" as="geometry"/>
                </mxCell>
                <mxCell id="rq7lYUsE7oODgP2l8xsh-5" style="edgeStyle=orthogonalEdgeStyle;rounded=0;orthogonalLoop=1;jettySize=auto;html=1;exitX=1;exitY=0.5;exitDx=0;exitDy=0;fontSize=8;fontStyle=0;fillColor=#f5f5f5;strokeColor=#666666;" parent="i_EMBV1g0umL7AURaR9A-1" source="rq7lYUsE7oODgP2l8xsh-6" edge="1">
                    <mxGeometry relative="1" as="geometry">
                        <mxPoint x="740" y="470.0322580645161" as="targetPoint"/>
                    </mxGeometry>
                </mxCell>
                <mxCell id="rq7lYUsE7oODgP2l8xsh-6" value="Click on pricing link in the Marketing app" style="rounded=0;whiteSpace=wrap;html=1;fontSize=8;fontStyle=2;fillColor=#f5f5f5;fontColor=#333333;strokeColor=#666666;" parent="i_EMBV1g0umL7AURaR9A-1" vertex="1">
                    <mxGeometry x="650" y="450" width="70" height="40" as="geometry"/>
                </mxCell>
                <mxCell id="rq7lYUsE7oODgP2l8xsh-7" style="edgeStyle=orthogonalEdgeStyle;rounded=0;orthogonalLoop=1;jettySize=auto;html=1;exitX=1;exitY=0.5;exitDx=0;exitDy=0;fontSize=8;fontStyle=0;fillColor=#f5f5f5;strokeColor=#666666;" parent="i_EMBV1g0umL7AURaR9A-1" edge="1">
                    <mxGeometry relative="1" as="geometry">
                        <mxPoint x="650" y="469.872258064516" as="targetPoint"/>
                        <mxPoint x="630" y="469.8399999999999" as="sourcePoint"/>
                    </mxGeometry>
                </mxCell>
                <mxCell id="rq7lYUsE7oODgP2l8xsh-12" value="Update Memory History's current path to '/pricing'" style="rounded=0;whiteSpace=wrap;html=1;fontStyle=0;fontSize=9;fillColor=#f5f5f5;fontColor=#333333;strokeColor=#666666;" parent="i_EMBV1g0umL7AURaR9A-1" vertex="1">
                    <mxGeometry x="740" y="435" width="110" height="30" as="geometry"/>
                </mxCell>
                <mxCell id="rq7lYUsE7oODgP2l8xsh-16" value="onNavigate" style="rounded=0;whiteSpace=wrap;html=1;fontSize=10;fontStyle=0;fillColor=#f5f5f5;fontColor=#333333;strokeColor=#666666;" parent="i_EMBV1g0umL7AURaR9A-1" vertex="1">
                    <mxGeometry x="548" y="420" width="65" height="20" as="geometry"/>
                </mxCell>
                <mxCell id="rq7lYUsE7oODgP2l8xsh-17" value="Call 'onNavigate' to tell container that the current path has changed" style="rounded=0;whiteSpace=wrap;html=1;fontStyle=0;fontSize=9;fillColor=#f5f5f5;fontColor=#333333;strokeColor=#666666;" parent="i_EMBV1g0umL7AURaR9A-1" vertex="1">
                    <mxGeometry x="740" y="465" width="110" height="40" as="geometry"/>
                </mxCell>
                <mxCell id="vJNKPPqOxjpx7d_q9KiX-0" value="User clicks link in Marketing" style="text;html=1;align=center;verticalAlign=middle;whiteSpace=wrap;rounded=0;fontSize=15;fontStyle=4;fillColor=#f5f5f5;fontColor=#333333;strokeColor=#666666;" parent="i_EMBV1g0umL7AURaR9A-1" vertex="1">
                    <mxGeometry x="690" y="350" width="120" height="30" as="geometry"/>
                </mxCell>
            </root>
        </mxGraphModel>
    </diagram>
    <diagram id="ANIguq3v2ENlMw3Q45IZ" name="05 - navigate">
        <mxGraphModel dx="366" dy="226" grid="1" gridSize="10" guides="1" tooltips="1" connect="1" arrows="1" fold="1" page="1" pageScale="1" pageWidth="1920" pageHeight="1200" math="0" shadow="0">
            <root>
                <mxCell id="2sndsoy1L3qbyhi2LkuE-0"/>
                <mxCell id="2sndsoy1L3qbyhi2LkuE-1" parent="2sndsoy1L3qbyhi2LkuE-0"/>
                <mxCell id="2sndsoy1L3qbyhi2LkuE-2" style="edgeStyle=orthogonalEdgeStyle;rounded=0;orthogonalLoop=1;jettySize=auto;html=1;exitX=0.25;exitY=1;exitDx=0;exitDy=0;entryX=0.25;entryY=0;entryDx=0;entryDy=0;fontSize=14;" edge="1" parent="2sndsoy1L3qbyhi2LkuE-1" source="2sndsoy1L3qbyhi2LkuE-3" target="2sndsoy1L3qbyhi2LkuE-4">
                    <mxGeometry relative="1" as="geometry"/>
                </mxCell>
                <mxCell id="2sndsoy1L3qbyhi2LkuE-3" value="Container" style="rounded=0;whiteSpace=wrap;html=1;fillColor=#dae8fc;strokeColor=#6c8ebf;fontStyle=1;fontSize=8;" vertex="1" parent="2sndsoy1L3qbyhi2LkuE-1">
                    <mxGeometry x="520" y="380" width="110" height="20" as="geometry"/>
                </mxCell>
                <mxCell id="2sndsoy1L3qbyhi2LkuE-4" value="Marketing" style="rounded=0;whiteSpace=wrap;html=1;fillColor=#d5e8d4;strokeColor=#82b366;fontStyle=1;fontSize=8;" vertex="1" parent="2sndsoy1L3qbyhi2LkuE-1">
                    <mxGeometry x="520" y="460" width="110" height="20" as="geometry"/>
                </mxCell>
                <mxCell id="2sndsoy1L3qbyhi2LkuE-5" style="edgeStyle=orthogonalEdgeStyle;rounded=0;orthogonalLoop=1;jettySize=auto;html=1;exitX=1;exitY=0.5;exitDx=0;exitDy=0;fontSize=8;" edge="1" parent="2sndsoy1L3qbyhi2LkuE-1" source="2sndsoy1L3qbyhi2LkuE-6">
                    <mxGeometry relative="1" as="geometry">
                        <mxPoint x="740" y="390.0322580645161" as="targetPoint"/>
                    </mxGeometry>
                </mxCell>
                <mxCell id="2sndsoy1L3qbyhi2LkuE-6" value="Click on App link in the header" style="rounded=0;whiteSpace=wrap;html=1;fontSize=8;fontStyle=2;fillColor=#ffe6cc;strokeColor=#d79b00;" vertex="1" parent="2sndsoy1L3qbyhi2LkuE-1">
                    <mxGeometry x="650" y="370" width="70" height="40" as="geometry"/>
                </mxCell>
                <mxCell id="2sndsoy1L3qbyhi2LkuE-7" style="edgeStyle=orthogonalEdgeStyle;rounded=0;orthogonalLoop=1;jettySize=auto;html=1;exitX=1;exitY=0.5;exitDx=0;exitDy=0;fontSize=8;" edge="1" parent="2sndsoy1L3qbyhi2LkuE-1">
                    <mxGeometry relative="1" as="geometry">
                        <mxPoint x="650" y="389.872258064516" as="targetPoint"/>
                        <mxPoint x="630" y="389.8399999999999" as="sourcePoint"/>
                    </mxGeometry>
                </mxCell>
                <mxCell id="2sndsoy1L3qbyhi2LkuE-8" value="Update BrowerHistory's current path to '/'" style="rounded=0;whiteSpace=wrap;html=1;fillColor=#d5e8d4;strokeColor=#82b366;fontStyle=0;fontSize=9;" vertex="1" parent="2sndsoy1L3qbyhi2LkuE-1">
                    <mxGeometry x="740" y="355" width="110" height="30" as="geometry"/>
                </mxCell>
                <mxCell id="2sndsoy1L3qbyhi2LkuE-9" value="onNavigate" style="rounded=0;whiteSpace=wrap;html=1;fontSize=10;fillColor=#f8cecc;strokeColor=#b85450;" vertex="1" parent="2sndsoy1L3qbyhi2LkuE-1">
                    <mxGeometry x="483" y="420" width="65" height="20" as="geometry"/>
                </mxCell>
                <mxCell id="2sndsoy1L3qbyhi2LkuE-10" value="Call the 'navigate' function to tell 'Marketing' that it needs to update its current path" style="rounded=0;whiteSpace=wrap;html=1;fillColor=#d5e8d4;strokeColor=#82b366;fontStyle=0;fontSize=9;" vertex="1" parent="2sndsoy1L3qbyhi2LkuE-1">
                    <mxGeometry x="740" y="385" width="110" height="55" as="geometry"/>
                </mxCell>
                <mxCell id="2sndsoy1L3qbyhi2LkuE-12" style="edgeStyle=orthogonalEdgeStyle;rounded=0;orthogonalLoop=1;jettySize=auto;html=1;exitX=0.25;exitY=1;exitDx=0;exitDy=0;entryX=0.25;entryY=0;entryDx=0;entryDy=0;fontSize=14;" edge="1" parent="2sndsoy1L3qbyhi2LkuE-1">
                    <mxGeometry relative="1" as="geometry">
                        <mxPoint x="607" y="460.0000000000001" as="sourcePoint"/>
                        <mxPoint x="607" y="400.0000000000001" as="targetPoint"/>
                    </mxGeometry>
                </mxCell>
                <mxCell id="2sndsoy1L3qbyhi2LkuE-13" value="navigate" style="rounded=0;whiteSpace=wrap;html=1;fontSize=10;fillColor=#f8cecc;strokeColor=#b85450;" vertex="1" parent="2sndsoy1L3qbyhi2LkuE-1">
                    <mxGeometry x="608" y="420" width="65" height="20" as="geometry"/>
                </mxCell>
            </root>
        </mxGraphModel>
    </diagram>
</mxfile>